<mxfile host="drawio-plugin" modified="2023-10-04T19:38:45.851Z" agent="5.0 (Windows NT 10.0; Win64; x64) AppleWebKit/537.36 (KHTML, like Gecko) Chrome/111.0.0.0 Safari/537.36" etag="MAPNFo5hvb54VUB8mNrf" version="20.5.3" type="embed"><diagram name="Page-1" id="w9ihNUBb9Rjg-Ea71THt"><mxGraphModel dx="883" dy="750" grid="1" gridSize="10" guides="1" tooltips="1" connect="1" arrows="1" fold="1" page="1" pageScale="1" pageWidth="827" pageHeight="1169" math="0" shadow="0"><root><mxCell id="0"/><mxCell id="1" parent="0"/><mxCell id="yqkwtP5y6iGvj30xNfCS-49" value="Restrictions" style="swimlane;fontStyle=0;childLayout=stackLayout;horizontal=1;startSize=26;horizontalStack=0;resizeParent=1;resizeParentMax=0;resizeLast=0;collapsible=1;marginBottom=0;align=center;fontSize=14;" parent="1" vertex="1"><mxGeometry x="40" y="640" width="280" height="116" as="geometry"/></mxCell><mxCell id="yqkwtP5y6iGvj30xNfCS-50" value="R1: Player cant be simultaniously host and guest" style="text;strokeColor=none;fillColor=none;spacingLeft=4;spacingRight=4;overflow=hidden;rotatable=0;points=[[0,0.5],[1,0.5]];portConstraint=eastwest;fontSize=12;whiteSpace=wrap;html=1;" parent="yqkwtP5y6iGvj30xNfCS-49" vertex="1"><mxGeometry y="26" width="280" height="30" as="geometry"/></mxCell><mxCell id="yqkwtP5y6iGvj30xNfCS-51" value="R2: Must be unique" style="text;strokeColor=none;fillColor=none;spacingLeft=4;spacingRight=4;overflow=hidden;rotatable=0;points=[[0,0.5],[1,0.5]];portConstraint=eastwest;fontSize=12;whiteSpace=wrap;html=1;" parent="yqkwtP5y6iGvj30xNfCS-49" vertex="1"><mxGeometry y="56" width="280" height="30" as="geometry"/></mxCell><mxCell id="yqkwtP5y6iGvj30xNfCS-52" value="R3 : create_date must be older than last used" style="text;strokeColor=none;fillColor=none;spacingLeft=4;spacingRight=4;overflow=hidden;rotatable=0;points=[[0,0.5],[1,0.5]];portConstraint=eastwest;fontSize=12;whiteSpace=wrap;html=1;" parent="yqkwtP5y6iGvj30xNfCS-49" vertex="1"><mxGeometry y="86" width="280" height="30" as="geometry"/></mxCell><mxCell id="57" value="GOMOKU" style="text;html=1;align=center;verticalAlign=middle;resizable=0;points=[];autosize=1;strokeColor=none;fillColor=none;fontSize=35;" parent="1" vertex="1"><mxGeometry x="320" y="50" width="180" height="60" as="geometry"/></mxCell><mxCell id="yqkwtP5y6iGvj30xNfCS-2" value="USERS" style="whiteSpace=wrap;html=1;align=center;container=0;" parent="1" vertex="1"><mxGeometry x="260" y="330" width="100" height="40" as="geometry"/></mxCell><mxCell id="yqkwtP5y6iGvj30xNfCS-3" value="username" style="ellipse;whiteSpace=wrap;html=1;align=center;container=0;" parent="1" vertex="1"><mxGeometry x="190" y="270" width="100" height="40" as="geometry"/></mxCell><mxCell id="yqkwtP5y6iGvj30xNfCS-4" value="uuid" style="ellipse;whiteSpace=wrap;html=1;align=center;fontStyle=4;container=0;" parent="1" vertex="1"><mxGeometry x="330" y="270" width="100" height="40" as="geometry"/></mxCell><mxCell id="yqkwtP5y6iGvj30xNfCS-6" value="MATCHES" style="whiteSpace=wrap;html=1;align=center;container=0;" parent="1" vertex="1"><mxGeometry x="560" y="330" width="100" height="40" as="geometry"/></mxCell><mxCell id="yqkwtP5y6iGvj30xNfCS-8" value="moves" style="ellipse;whiteSpace=wrap;html=1;align=center;container=0;" parent="1" vertex="1"><mxGeometry x="680" y="450" width="100" height="40" as="geometry"/></mxCell><mxCell id="yqkwtP5y6iGvj30xNfCS-9" value="match_id" style="ellipse;whiteSpace=wrap;html=1;align=center;fontStyle=4;container=0;" parent="1" vertex="1"><mxGeometry x="560" y="270" width="100" height="40" as="geometry"/></mxCell><mxCell id="yqkwtP5y6iGvj30xNfCS-12" value="" style="endArrow=none;html=1;rounded=0;" parent="1" source="yqkwtP5y6iGvj30xNfCS-9" target="yqkwtP5y6iGvj30xNfCS-6" edge="1"><mxGeometry relative="1" as="geometry"><mxPoint x="395" y="550" as="sourcePoint"/><mxPoint x="555" y="550" as="targetPoint"/></mxGeometry></mxCell><mxCell id="yqkwtP5y6iGvj30xNfCS-14" value="" style="endArrow=none;html=1;rounded=0;" parent="1" source="72" target="yqkwtP5y6iGvj30xNfCS-8" edge="1"><mxGeometry relative="1" as="geometry"><mxPoint x="660" y="470" as="sourcePoint"/><mxPoint x="555" y="550" as="targetPoint"/></mxGeometry></mxCell><mxCell id="yqkwtP5y6iGvj30xNfCS-15" value="" style="endArrow=none;html=1;rounded=0;" parent="1" source="yqkwtP5y6iGvj30xNfCS-4" target="yqkwtP5y6iGvj30xNfCS-2" edge="1"><mxGeometry relative="1" as="geometry"><mxPoint x="409" y="550" as="sourcePoint"/><mxPoint x="569" y="550" as="targetPoint"/></mxGeometry></mxCell><mxCell id="yqkwtP5y6iGvj30xNfCS-16" value="" style="endArrow=none;html=1;rounded=0;" parent="1" source="yqkwtP5y6iGvj30xNfCS-3" target="yqkwtP5y6iGvj30xNfCS-2" edge="1"><mxGeometry relative="1" as="geometry"><mxPoint x="409" y="550" as="sourcePoint"/><mxPoint x="569" y="550" as="targetPoint"/></mxGeometry></mxCell><mxCell id="yqkwtP5y6iGvj30xNfCS-19" value="elo" style="ellipse;whiteSpace=wrap;html=1;align=center;container=0;" parent="1" vertex="1"><mxGeometry x="130" y="360" width="100" height="40" as="geometry"/></mxCell><mxCell id="yqkwtP5y6iGvj30xNfCS-31" value="password_validation_info" style="ellipse;whiteSpace=wrap;html=1;align=center;container=0;" parent="1" vertex="1"><mxGeometry x="240" y="230" width="140" height="40" as="geometry"/></mxCell><mxCell id="yqkwtP5y6iGvj30xNfCS-43" value="encoded_token" style="ellipse;whiteSpace=wrap;html=1;align=center;container=0;" parent="1" vertex="1"><mxGeometry x="140" y="470" width="100" height="40" as="geometry"/></mxCell><mxCell id="yqkwtP5y6iGvj30xNfCS-44" value="" style="endArrow=none;html=1;rounded=0;" parent="1" source="39" target="yqkwtP5y6iGvj30xNfCS-43" edge="1"><mxGeometry relative="1" as="geometry"><mxPoint x="258.9999999999998" y="469.9999999999998" as="sourcePoint"/><mxPoint x="639" y="648" as="targetPoint"/></mxGeometry></mxCell><mxCell id="yqkwtP5y6iGvj30xNfCS-45" value="host" style="shape=rhombus;perimeter=rhombusPerimeter;whiteSpace=wrap;html=1;align=center;container=0;" parent="1" vertex="1"><mxGeometry x="420" y="330" width="80" height="40" as="geometry"/></mxCell><mxCell id="yqkwtP5y6iGvj30xNfCS-59" value="guest" style="shape=rhombus;perimeter=rhombusPerimeter;whiteSpace=wrap;html=1;align=center;container=0;" parent="1" vertex="1"><mxGeometry x="420" y="390" width="80" height="40" as="geometry"/></mxCell><mxCell id="yqkwtP5y6iGvj30xNfCS-64" value="R1" style="text;html=1;align=center;verticalAlign=middle;resizable=0;points=[];autosize=1;strokeColor=none;fillColor=none;container=0;" parent="1" vertex="1"><mxGeometry x="390" y="330" width="40" height="30" as="geometry"/></mxCell><mxCell id="yqkwtP5y6iGvj30xNfCS-65" value="R1" style="text;html=1;align=center;verticalAlign=middle;resizable=0;points=[];autosize=1;strokeColor=none;fillColor=none;container=0;" parent="1" vertex="1"><mxGeometry x="410" y="380" width="40" height="30" as="geometry"/></mxCell><mxCell id="4" value="winner" style="ellipse;whiteSpace=wrap;html=1;align=center;container=0;" parent="1" vertex="1"><mxGeometry x="440" y="570" width="100" height="40" as="geometry"/></mxCell><mxCell id="5" value="" style="endArrow=none;html=1;rounded=0;" parent="1" source="73" target="4" edge="1"><mxGeometry relative="1" as="geometry"><mxPoint x="560" y="590" as="sourcePoint"/><mxPoint x="590" y="630" as="targetPoint"/></mxGeometry></mxCell><mxCell id="8" value="" style="endArrow=none;html=1;rounded=0;" parent="1" source="67" target="yqkwtP5y6iGvj30xNfCS-6" edge="1"><mxGeometry relative="1" as="geometry"><mxPoint x="609" y="390" as="sourcePoint"/><mxPoint x="489" y="420" as="targetPoint"/></mxGeometry></mxCell><mxCell id="9" value="games_played" style="ellipse;whiteSpace=wrap;html=1;align=center;container=0;" parent="1" vertex="1"><mxGeometry x="130" y="310" width="100" height="40" as="geometry"/></mxCell><mxCell id="15" value="R2" style="text;html=1;align=center;verticalAlign=middle;resizable=0;points=[];autosize=1;strokeColor=none;fillColor=none;container=0;" parent="1" vertex="1"><mxGeometry x="260" y="300" width="40" height="30" as="geometry"/></mxCell><mxCell id="19" value="create_date" style="ellipse;whiteSpace=wrap;html=1;align=center;container=0;" parent="1" vertex="1"><mxGeometry x="170" y="530" width="100" height="40" as="geometry"/></mxCell><mxCell id="20" value="last_used" style="ellipse;whiteSpace=wrap;html=1;align=center;container=0;" parent="1" vertex="1"><mxGeometry x="330" y="530" width="100" height="40" as="geometry"/></mxCell><mxCell id="21" value="" style="endArrow=none;html=1;rounded=0;" parent="1" source="39" target="20" edge="1"><mxGeometry relative="1" as="geometry"><mxPoint x="308.9999999999998" y="489.9999999999998" as="sourcePoint"/><mxPoint x="489" y="420" as="targetPoint"/></mxGeometry></mxCell><mxCell id="22" value="" style="endArrow=none;html=1;rounded=0;" parent="1" source="39" target="19" edge="1"><mxGeometry relative="1" as="geometry"><mxPoint x="278.9539313652424" y="489.9999999999998" as="sourcePoint"/><mxPoint x="489" y="420" as="targetPoint"/></mxGeometry></mxCell><mxCell id="23" value="R3" style="text;html=1;align=center;verticalAlign=middle;resizable=0;points=[];autosize=1;strokeColor=none;fillColor=none;container=0;" parent="1" vertex="1"><mxGeometry x="220" y="510" width="40" height="30" as="geometry"/></mxCell><mxCell id="24" value="R3" style="text;html=1;align=center;verticalAlign=middle;resizable=0;points=[];autosize=1;strokeColor=none;fillColor=none;container=0;" parent="1" vertex="1"><mxGeometry x="340" y="510" width="40" height="30" as="geometry"/></mxCell><mxCell id="25" value="ttl" style="ellipse;whiteSpace=wrap;html=1;align=center;container=0;" parent="1" vertex="1"><mxGeometry x="380" y="470" width="100" height="40" as="geometry"/></mxCell><mxCell id="26" value="" style="endArrow=none;html=1;rounded=0;" parent="1" source="39" target="25" edge="1"><mxGeometry relative="1" as="geometry"><mxPoint x="339.04606863475783" y="489.9999999999998" as="sourcePoint"/><mxPoint x="489" y="420" as="targetPoint"/></mxGeometry></mxCell><mxCell id="29" value="" style="endArrow=none;html=1;rounded=0;" parent="1" source="yqkwtP5y6iGvj30xNfCS-2" target="yqkwtP5y6iGvj30xNfCS-31" edge="1"><mxGeometry relative="1" as="geometry"><mxPoint x="259" y="180" as="sourcePoint"/><mxPoint x="489" y="270" as="targetPoint"/></mxGeometry></mxCell><mxCell id="38" value="has" style="shape=rhombus;double=1;perimeter=rhombusPerimeter;whiteSpace=wrap;html=1;align=center;container=0;" parent="1" vertex="1"><mxGeometry x="265" y="400" width="90" height="40" as="geometry"/></mxCell><mxCell id="39" value="TOKENS" style="shape=ext;margin=3;double=1;whiteSpace=wrap;html=1;align=center;container=0;" parent="1" vertex="1"><mxGeometry x="260" y="470" width="100" height="40" as="geometry"/></mxCell><mxCell id="42" value="" style="shape=link;html=1;rounded=0;" parent="1" source="38" target="39" edge="1"><mxGeometry relative="1" as="geometry"><mxPoint x="229" y="420" as="sourcePoint"/><mxPoint x="389" y="420" as="targetPoint"/></mxGeometry></mxCell><mxCell id="43" value="1" style="resizable=0;html=1;align=right;verticalAlign=bottom;container=0;" parent="42" connectable="0" vertex="1"><mxGeometry relative="1" as="geometry"/></mxCell><mxCell id="44" value="" style="endArrow=none;html=1;rounded=0;" parent="1" source="38" target="yqkwtP5y6iGvj30xNfCS-2" edge="1"><mxGeometry relative="1" as="geometry"><mxPoint x="229" y="420" as="sourcePoint"/><mxPoint x="389" y="420" as="targetPoint"/></mxGeometry></mxCell><mxCell id="45" value="1" style="resizable=0;html=1;align=right;verticalAlign=bottom;container=0;" parent="44" connectable="0" vertex="1"><mxGeometry relative="1" as="geometry"><mxPoint y="15" as="offset"/></mxGeometry></mxCell><mxCell id="49" value="" style="endArrow=none;html=1;rounded=0;" parent="1" source="yqkwtP5y6iGvj30xNfCS-45" target="yqkwtP5y6iGvj30xNfCS-2" edge="1"><mxGeometry relative="1" as="geometry"><mxPoint x="229" y="420" as="sourcePoint"/><mxPoint x="389" y="420" as="targetPoint"/></mxGeometry></mxCell><mxCell id="50" value="1" style="resizable=0;html=1;align=right;verticalAlign=bottom;container=0;" parent="49" connectable="0" vertex="1"><mxGeometry relative="1" as="geometry"><mxPoint x="-20" as="offset"/></mxGeometry></mxCell><mxCell id="51" value="" style="endArrow=none;html=1;rounded=0;" parent="1" source="yqkwtP5y6iGvj30xNfCS-59" target="yqkwtP5y6iGvj30xNfCS-2" edge="1"><mxGeometry relative="1" as="geometry"><mxPoint x="229" y="420" as="sourcePoint"/><mxPoint x="389" y="420" as="targetPoint"/></mxGeometry></mxCell><mxCell id="52" value="1" style="resizable=0;html=1;align=right;verticalAlign=bottom;container=0;" parent="51" connectable="0" vertex="1"><mxGeometry relative="1" as="geometry"><mxPoint x="-29" y="-16" as="offset"/></mxGeometry></mxCell><mxCell id="63" value="moves" style="ellipse;whiteSpace=wrap;html=1;align=center;container=0;" parent="1" vertex="1"><mxGeometry x="680" y="570" width="100" height="40" as="geometry"/></mxCell><mxCell id="64" value="" style="endArrow=none;html=1;rounded=0;" parent="1" source="73" target="63" edge="1"><mxGeometry relative="1" as="geometry"><mxPoint x="660" y="590" as="sourcePoint"/><mxPoint x="510" y="610" as="targetPoint"/></mxGeometry></mxCell><mxCell id="67" value="" style="shape=rhombus;double=1;perimeter=rhombusPerimeter;whiteSpace=wrap;html=1;align=center;container=0;" parent="1" vertex="1"><mxGeometry x="565" y="390" width="90" height="40" as="geometry"/></mxCell><mxCell id="68" value="" style="endArrow=none;html=1;rounded=0;" parent="1" source="72" target="67" edge="1"><mxGeometry relative="1" as="geometry"><mxPoint x="609.6666666666665" y="450" as="sourcePoint"/><mxPoint x="500" y="400" as="targetPoint"/></mxGeometry></mxCell><mxCell id="70" value="" style="shape=rhombus;double=1;perimeter=rhombusPerimeter;whiteSpace=wrap;html=1;align=center;container=0;" parent="1" vertex="1"><mxGeometry x="565" y="510" width="90" height="40" as="geometry"/></mxCell><mxCell id="71" value="" style="endArrow=none;html=1;rounded=0;" parent="1" source="73" target="70" edge="1"><mxGeometry relative="1" as="geometry"><mxPoint x="610" y="570" as="sourcePoint"/><mxPoint x="501" y="520" as="targetPoint"/></mxGeometry></mxCell><mxCell id="72" value="ONGOING MATCHES" style="shape=ext;margin=3;double=1;whiteSpace=wrap;html=1;align=center;" parent="1" vertex="1"><mxGeometry x="560" y="450" width="100" height="40" as="geometry"/></mxCell><mxCell id="69" value="" style="endArrow=none;html=1;rounded=0;" parent="1" source="70" target="72" edge="1"><mxGeometry relative="1" as="geometry"><mxPoint x="610" y="510" as="sourcePoint"/><mxPoint x="610" y="490" as="targetPoint"/></mxGeometry></mxCell><mxCell id="73" value="FINISHED MATCHES" style="shape=ext;margin=3;double=1;whiteSpace=wrap;html=1;align=center;" parent="1" vertex="1"><mxGeometry x="560" y="570" width="100" height="40" as="geometry"/></mxCell><mxCell id="76" value="" style="endArrow=none;html=1;rounded=0;" parent="1" source="yqkwtP5y6iGvj30xNfCS-2" target="9" edge="1"><mxGeometry width="50" height="50" relative="1" as="geometry"><mxPoint x="430" y="410" as="sourcePoint"/><mxPoint x="480" y="360" as="targetPoint"/></mxGeometry></mxCell><mxCell id="77" value="" style="endArrow=none;html=1;rounded=0;" parent="1" source="yqkwtP5y6iGvj30xNfCS-19" target="yqkwtP5y6iGvj30xNfCS-2" edge="1"><mxGeometry width="50" height="50" relative="1" as="geometry"><mxPoint x="430" y="410" as="sourcePoint"/><mxPoint x="480" y="360" as="targetPoint"/></mxGeometry></mxCell><mxCell id="80" value="" style="shape=link;html=1;rounded=0;" parent="1" source="yqkwtP5y6iGvj30xNfCS-45" target="yqkwtP5y6iGvj30xNfCS-6" edge="1"><mxGeometry relative="1" as="geometry"><mxPoint x="380" y="380" as="sourcePoint"/><mxPoint x="540" y="380" as="targetPoint"/></mxGeometry></mxCell><mxCell id="81" value="N" style="resizable=0;html=1;align=right;verticalAlign=bottom;" parent="80" connectable="0" vertex="1"><mxGeometry x="1" relative="1" as="geometry"/></mxCell><mxCell id="82" value="" style="shape=link;html=1;rounded=0;" parent="1" source="yqkwtP5y6iGvj30xNfCS-59" target="72" edge="1"><mxGeometry relative="1" as="geometry"><mxPoint x="380" y="380" as="sourcePoint"/><mxPoint x="540" y="380" as="targetPoint"/></mxGeometry></mxCell><mxCell id="83" value="N" style="resizable=0;html=1;align=right;verticalAlign=bottom;" parent="82" connectable="0" vertex="1"><mxGeometry x="1" relative="1" as="geometry"/></mxCell></root></mxGraphModel></diagram></mxfile>